<?xml version="1.0" encoding="utf-8"?>
<!-- Generator: Adobe Illustrator 24.3.0, SVG Export Plug-In . SVG Version: 6.00 Build 0)  -->
<svg version="1.1" id="Ebene_1" xmlns="http://www.w3.org/2000/svg" xmlns:xlink="http://www.w3.org/1999/xlink" x="0px" y="0px"
	 viewBox="0 0 22.5 14.6" style="enable-background:new 0 0 22.5 14.6;" xml:space="preserve">
<style type="text/css">
	.st0{fill:#001424;}
</style>
<g>
	<path class="st0" d="M21.3,2.3H1.2c-0.6,0-1.1-0.5-1.1-1.1s0.5-1.1,1.1-1.1h20.1c0.6,0,1.1,0.5,1.1,1.1S21.9,2.3,21.3,2.3z"/>
</g>
<g>
	<path class="st0" d="M21.3,8.3H1.2c-0.6,0-1.1-0.5-1.1-1.1s0.5-1.1,1.1-1.1h20.1c0.6,0,1.1,0.5,1.1,1.1S21.9,8.3,21.3,8.3z"/>
</g>
<g>
	<path class="st0" d="M12.9,14.5H1.3c-0.7,0-1.2-0.6-1.2-1.2s0.6-1.2,1.2-1.2h11.6c0.7,0,1.2,0.6,1.2,1.2S13.6,14.5,12.9,14.5z"/>
</g>
</svg>
