<?xml version="1.0" encoding="utf-8"?>
<!-- Generator: Adobe Illustrator 24.1.0, SVG Export Plug-In . SVG Version: 6.00 Build 0)  -->
<svg version="1.1" id="Ebene_1" xmlns="http://www.w3.org/2000/svg" xmlns:xlink="http://www.w3.org/1999/xlink" x="0px" y="0px"
	 viewBox="0 0 100 100" style="enable-background:new 0 0 100 100;" xml:space="preserve">
<style type="text/css">
	.st0{fill:none;}
	.st1{fill:none;stroke:#001424;stroke-width:5;}
	.st2{fill:#001424;}
</style>
<g id="Rechteck_606">
	<path class="st0" d="M12.5,0h75C94.4,0,100,5.6,100,12.5v75c0,6.9-5.6,12.5-12.5,12.5h-75C5.6,100,0,94.4,0,87.5v-75
		C0,5.6,5.6,0,12.5,0z"/>
	<path class="st1" d="M12.5,2.5h75c5.5,0,10,4.5,10,10v75c0,5.5-4.5,10-10,10h-75c-5.5,0-10-4.5-10-10v-75C2.5,7,7,2.5,12.5,2.5z"/>
</g>
<g id="Gruppe_4326" transform="translate(-0.566 0.65)">
	<path id="Pfad_409" class="st2" d="M38.7,85l0.1-30.7h-8.2c-1,0-1.9-0.8-1.9-1.9l0-9.9c0-1.1,0.9-1.9,1.9-1.9c0,0,0,0,0,0h8.1v-9.5
		c0-11.1,6.9-17.1,17-17.1H64c1.1,0,1.9,0.8,1.9,1.9c0,0,0,0,0,0v8.3c0,1.1-0.9,1.9-1.9,1.9c0,0,0,0,0,0h-5.1
		c-5.5,0-6.6,2.5-6.6,6.3v8.3h12.1c1,0,1.9,0.8,1.9,1.9c0,0.1,0,0.2,0,0.2l-1.2,9.9c-0.1,1-0.9,1.7-1.9,1.7H52.4V85H38.7z"/>
</g>
</svg>
