<?xml version="1.0" encoding="utf-8"?>
<!-- Generator: Adobe Illustrator 24.1.0, SVG Export Plug-In . SVG Version: 6.00 Build 0)  -->
<svg version="1.1" id="Ebene_1" xmlns="http://www.w3.org/2000/svg" xmlns:xlink="http://www.w3.org/1999/xlink" x="0px" y="0px"
	 viewBox="0 0 100 100" style="enable-background:new 0 0 100 100;" xml:space="preserve">
<style type="text/css">
	.st0{fill:none;}
	.st1{fill:none;stroke:#001424;stroke-width:5;}
	.st2{fill:#001424;}
</style>
<g id="Gruppe_4869" transform="translate(-0.107)">
	<g id="Rechteck_605" transform="translate(0.107)">
		<path class="st0" d="M12.5,0h75C94.4,0,100,5.6,100,12.5v75c0,6.9-5.6,12.5-12.5,12.5h-75C5.6,100,0,94.4,0,87.5v-75
			C0,5.6,5.6,0,12.5,0z"/>
		<path class="st1" d="M12.5,2.5h75c5.5,0,10,4.5,10,10v75c0,5.5-4.5,10-10,10h-75c-5.5,0-10-4.5-10-10v-75C2.5,7,7,2.5,12.5,2.5z"
			/>
	</g>
	<g id="Gruppe_4325" transform="translate(8.177 7.878)">
		<path id="Pfad_407" class="st2" d="M57.1,71.6H26.8c-8.1,0-14.7-6.5-14.7-14.6c0,0,0-0.1,0-0.1V26.6c0-8.1,6.5-14.7,14.6-14.7
			c0,0,0.1,0,0.1,0h30.3c8.1,0,14.7,6.5,14.7,14.6c0,0,0,0.1,0,0.1v30.3c0,8.1-6.5,14.7-14.6,14.7C57.2,71.6,57.1,71.6,57.1,71.6z
			 M26.8,16.3c-5.7,0-10.3,4.6-10.3,10.2c0,0,0,0.1,0,0.1v30.3c0,5.7,4.6,10.3,10.2,10.3c0,0,0.1,0,0.1,0h30.3
			c5.7,0,10.3-4.5,10.3-10.2c0,0,0-0.1,0-0.1V26.6c0-5.7-4.6-10.3-10.2-10.3c0,0-0.1,0-0.1,0H26.8z"/>
		<path id="Pfad_408" class="st2" d="M42.1,57.8c-8.9,0-16-7.2-16-16s7.2-16,16-16s16,7.2,16,16C58.1,50.7,50.9,57.8,42.1,57.8z
			 M42.1,30c-6.4,0-11.6,5.2-11.6,11.6s5.2,11.6,11.6,11.6s11.6-5.2,11.6-11.6l0,0C53.7,35.2,48.5,30,42.1,30L42.1,30z"/>
		<ellipse id="Ellipse_18" class="st2" cx="58.6" cy="24.8" rx="2.5" ry="2.5"/>
	</g>
</g>
</svg>
