<?xml version="1.0" encoding="utf-8"?>
<!-- Generator: Adobe Illustrator 26.0.3, SVG Export Plug-In . SVG Version: 6.00 Build 0)  -->
<svg version="1.1" id="Ebene_1" xmlns="http://www.w3.org/2000/svg" xmlns:xlink="http://www.w3.org/1999/xlink" x="0px" y="0px"
	 viewBox="0 0 141.7 141.7" style="enable-background:new 0 0 141.7 141.7;" xml:space="preserve">
<style type="text/css">
	.st0{fill:none;}
	.st1{fill:none;stroke:#001424;stroke-width:7.0866;}
	.st2{fill:#001424;}
</style>
<g id="Gruppe_4869" transform="translate(-0.107)">
	<g id="Rechteck_605" transform="translate(0.107)">
		<path class="st0" d="M17.7,0H124c9.8,0,17.7,7.9,17.7,17.7V124c0,9.8-7.9,17.7-17.7,17.7H17.7C7.9,141.7,0,133.8,0,124V17.7
			C0,7.9,7.9,0,17.7,0z"/>
		<path class="st1" d="M17.7,3.5H124c7.8,0,14.2,6.3,14.2,14.2V124c0,7.8-6.3,14.2-14.2,14.2H17.7c-7.8,0-14.2-6.3-14.2-14.2V17.7
			C3.5,9.9,9.9,3.5,17.7,3.5z"/>
	</g>
</g>
<g>
	<g>
		<g>
			<path class="st2" d="M101.8,40.6c-5.5-3.6-9.4-9.2-10.6-15.9c-0.3-1.4-0.4-2.9-0.4-4.4H73.4l0,69.7c-0.3,7.8-6.7,14.1-14.6,14.1
				c-2.4,0-4.8-0.6-6.8-1.7c-4.7-2.4-7.8-7.3-7.8-12.9c0-8.1,6.6-14.6,14.6-14.6c1.5,0,2.9,0.2,4.3,0.7V61.9v-4.1
				c-1.4-0.2-2.8-0.3-4.3-0.3c-17.7,0-32,14.4-32,32c0,10.8,5.4,20.4,13.7,26.2c5.2,3.7,11.5,5.8,18.3,5.8c17.7,0,32-14.4,32-32
				V54.1c6.8,4.9,15.2,7.8,24.2,7.8V48.4v-3.9C110.1,44.5,105.6,43,101.8,40.6z"/>
		</g>
	</g>
</g>
</svg>
