<svg xmlns="http://www.w3.org/2000/svg" viewBox="0 0 15.938 15.9">
  <defs>
    <style>.a{fill:#ffffff;}</style>
  </defs>
  <path class="a" d="M5.8,12.9a1.5,1.5,0,0,0,0,3,1.5,1.5,0,0,0,0-3Z"/>
  <path class="a" d="M12.9,12.9a1.5,1.5,0,1,0,1.5,1.5A1.415,1.415,0,0,0,12.9,12.9Z"/>
  <path class="a" d="M6.6,12.2Z"/>
  <path class="a" d="M13.7,9.7h0a.31.31,0,0,0,.1-.2L15.9,4a1.015,1.015,0,0,0-.3-1h0a1.445,1.445,0,0,0-.7-.2H3.2L2.6.5A.752.752,0,0,0,1.9,0H.7C.3,0,0,.2,0,.6a.751.751,0,0,0,.7.7l.9.1L4.5,12.3h9.2c.5,0,.8-.3.8-.6s-.4-.6-.8-.6H5.4L5.1,9.9h8.1C13.4,9.9,13.6,9.9,13.7,9.7Z"/>
</svg>